<?xml version="1.0" encoding="UTF-8" standalone="no"?>
<svg
   xmlns:dc="http://purl.org/dc/elements/1.1/"
   xmlns:cc="http://creativecommons.org/ns#"
   xmlns:rdf="http://www.w3.org/1999/02/22-rdf-syntax-ns#"
   xmlns:svg="http://www.w3.org/2000/svg"
   xmlns="http://www.w3.org/2000/svg"
   xmlns:sodipodi="http://sodipodi.sourceforge.net/DTD/sodipodi-0.dtd"
   xmlns:inkscape="http://www.inkscape.org/namespaces/inkscape"
   height="100%"
   version="1.1"
   width="100%"
   viewBox="40 50 440 430"
   id="svg6171"
   sodipodi:docname="final.svg"
   inkscape:version="0.92.2 5c3e80d, 2017-08-06">
  <metadata
     id="metadata6175">
    <rdf:RDF>
      <cc:Work
         rdf:about="">
        <dc:format>image/svg+xml</dc:format>
        <dc:type
           rdf:resource="http://purl.org/dc/dcmitype/StillImage" />
        <dc:title></dc:title>
      </cc:Work>
    </rdf:RDF>
  </metadata>
  <sodipodi:namedview
     pagecolor="#ffffff"
     bordercolor="#666666"
     borderopacity="1"
     objecttolerance="10"
     gridtolerance="10"
     guidetolerance="10"
     inkscape:pageopacity="0"
     inkscape:pageshadow="2"
     inkscape:window-width="2292"
     inkscape:window-height="1209"
     id="namedview6173"
     showgrid="false"
     inkscape:snap-text-baseline="true"
     inkscape:zoom="2"
     inkscape:cx="179.573"
     inkscape:cy="267.12824"
     inkscape:window-x="2074"
     inkscape:window-y="60"
     inkscape:window-maximized="0"
     inkscape:current-layer="svg6171" />
  <defs
     id="defs5855">
    <marker
       inkscape:stockid="Arrow2Lend"
       orient="auto"
       refY="0.0"
       refX="0.0"
       id="Arrow2Lend"
       style="overflow:visible;"
       inkscape:isstock="true">
      <path
         id="path6975"
         style="fill-rule:evenodd;stroke-width:0.625;stroke-linejoin:round;stroke:#000000;stroke-opacity:1;fill:#000000;fill-opacity:1"
         d="M 8.7185878,4.0337352 L -2.2072895,0.016013256 L 8.7185884,-4.0017078 C 6.9730900,-1.6296469 6.9831476,1.6157441 8.7185878,4.0337352 z "
         transform="scale(1.1) rotate(180) translate(1,0)" />
    </marker>
    <marker
       inkscape:stockid="Arrow1Lstart"
       orient="auto"
       refY="0.0"
       refX="0.0"
       id="Arrow1Lstart"
       style="overflow:visible"
       inkscape:isstock="true">
      <path
         id="path6954"
         d="M 0.0,0.0 L 5.0,-5.0 L -12.5,0.0 L 5.0,5.0 L 0.0,0.0 z "
         style="fill-rule:evenodd;stroke:#000000;stroke-width:1pt;stroke-opacity:1;fill:#000000;fill-opacity:1"
         transform="scale(0.8) translate(12.5,0)" />
    </marker>
  </defs>
  <g class="DriveWires">
    <line id="X0" stroke="red" x1="100" x2="420" y1="120.0" y2="120.0"/>
    <line id="X1" stroke="red" x1="100" x2="420" y1="160.0" y2="160.0"/>
    <line id="X1" stroke="red" x1="100" x2="420" y1="200.0" y2="200.0"/>
    <line id="X0" stroke="red" x1="100" x2="420" y1="240.0" y2="240.0"/>
    <line id="X0" stroke="red" x1="100" x2="420" y1="280.0" y2="280.0"/>
    <line id="X1" stroke="red" x1="100" x2="420" y1="320.0" y2="320.0"/>
    <line id="X1" stroke="red" x1="100" x2="420" y1="360.0" y2="360.0"/>
    <line id="X0" stroke="red" x1="100" x2="420" y1="400.0" y2="400.0"/>
    <line id="Y0" stroke="blue" x1="120.0" x2="120.0" y1="100" y2="420"/>
    <line id="Y3" stroke="blue" x1="160.0" x2="160.0" y1="100" y2="420"/>
    <line id="Y1" stroke="blue" x1="200.0" x2="200.0" y1="100" y2="420"/>
    <line id="Y2" stroke="blue" x1="240.0" x2="240.0" y1="100" y2="420"/>
    <line id="Y2" stroke="blue" x1="280.0" x2="280.0" y1="100" y2="420"/>
    <line id="Y1" stroke="blue" x1="320.0" x2="320.0" y1="100" y2="420"/>
    <line id="Y3" stroke="blue" x1="360.0" x2="360.0" y1="100" y2="420"/>
    <line id="Y0" stroke="blue" x1="400.0" x2="400.0" y1="100" y2="420"/>
    <path d="M 120.000000 420.000000 L 120.000000 470.000000 L 400.000000 470.000000 L 400.000000 420.000000" fill="none" id="Y0" stroke="blue"/>
    <path d="M 160.000000 420.000000 L 160.000000 460.000000 L 360.000000 460.000000 L 360.000000 420.000000" fill="none" id="Y3" stroke="blue"/>
    <path d="M 200.000000 420.000000 L 200.000000 450.000000 L 320.000000 450.000000 L 320.000000 420.000000" fill="none" id="Y1" stroke="blue"/>
    <path d="M 240.000000 420.000000 L 240.000000 440.000000 L 280.000000 440.000000 L 280.000000 420.000000" fill="none" id="Y2" stroke="blue"/>
    <path d="M 420.000000 120.000000 L 450.000000 120.000000 L 450.000000 240.000000 L 420.000000 240.000000" fill="none" id="X0" stroke="red"/>
    <path d="M 420.000000 160.000000 L 440.000000 160.000000 L 440.000000 200.000000 L 420.000000 200.000000" fill="none" id="X1" stroke="red"/>
    <path d="M 100.000000 200.000000 L 70.000000 200.000000 L 70.000000 320.000000 L 100.000000 320.000000" fill="none" id="X1" stroke="red"/>
    <path d="M 100.000000 240.000000 L 80.000000 240.000000 L 80.000000 280.000000 L 100.000000 280.000000" fill="none" id="X0" stroke="red"/>
    <path d="M 420.000000 280.000000 L 450.000000 280.000000 L 450.000000 400.000000 L 420.000000 400.000000" fill="none" id="X0" stroke="red"/>
    <path d="M 420.000000 320.000000 L 440.000000 320.000000 L 440.000000 360.000000 L 420.000000 360.000000" fill="none" id="X1" stroke="red"/>
    <line stroke="red" x1="106" x2="100" y1="120.0" y2="114.0"/>
    <line stroke="red" x1="106" x2="100" y1="120.0" y2="126.0"/>
    <line stroke="red" x1="420" x2="414" y1="120.0" y2="114.0"/>
    <line stroke="red" x1="420" x2="414" y1="120.0" y2="126.0"/>
    <line stroke="red" x1="100" x2="106" y1="160.0" y2="154.0"/>
    <line stroke="red" x1="100" x2="106" y1="160.0" y2="166.0"/>
    <line stroke="red" x1="414" x2="420" y1="160.0" y2="154.0"/>
    <line stroke="red" x1="414" x2="420" y1="160.0" y2="166.0"/>
    <line stroke="red" x1="106" x2="100" y1="200.0" y2="194.0"/>
    <line stroke="red" x1="106" x2="100" y1="200.0" y2="206.0"/>
    <line stroke="red" x1="420" x2="414" y1="200.0" y2="194.0"/>
    <line stroke="red" x1="420" x2="414" y1="200.0" y2="206.0"/>
    <line stroke="red" x1="100" x2="106" y1="240.0" y2="234.0"/>
    <line stroke="red" x1="100" x2="106" y1="240.0" y2="246.0"/>
    <line stroke="red" x1="414" x2="420" y1="240.0" y2="234.0"/>
    <line stroke="red" x1="414" x2="420" y1="240.0" y2="246.0"/>
    <line stroke="red" x1="106" x2="100" y1="280.0" y2="274.0"/>
    <line stroke="red" x1="106" x2="100" y1="280.0" y2="286.0"/>
    <line stroke="red" x1="420" x2="414" y1="280.0" y2="274.0"/>
    <line stroke="red" x1="420" x2="414" y1="280.0" y2="286.0"/>
    <line stroke="red" x1="100" x2="106" y1="320.0" y2="314.0"/>
    <line stroke="red" x1="100" x2="106" y1="320.0" y2="326.0"/>
    <line stroke="red" x1="414" x2="420" y1="320.0" y2="314.0"/>
    <line stroke="red" x1="414" x2="420" y1="320.0" y2="326.0"/>
    <line stroke="red" x1="106" x2="100" y1="360.0" y2="354.0"/>
    <line stroke="red" x1="106" x2="100" y1="360.0" y2="366.0"/>
    <line stroke="red" x1="420" x2="414" y1="360.0" y2="354.0"/>
    <line stroke="red" x1="420" x2="414" y1="360.0" y2="366.0"/>
    <line stroke="red" x1="100" x2="106" y1="400.0" y2="394.0"/>
    <line stroke="red" x1="100" x2="106" y1="400.0" y2="406.0"/>
    <line stroke="red" x1="414" x2="420" y1="400.0" y2="394.0"/>
    <line stroke="red" x1="414" x2="420" y1="400.0" y2="406.0"/>
    <line stroke="blue" x1="120.0" x2="114.0" y1="106" y2="100"/>
    <line stroke="blue" x1="120.0" x2="126.0" y1="106" y2="100"/>
    <line stroke="blue" x1="120.0" x2="114.0" y1="420" y2="414"/>
    <line stroke="blue" x1="120.0" x2="126.0" y1="420" y2="414"/>
    <line stroke="blue" x1="160.0" x2="154.0" y1="100" y2="106"/>
    <line stroke="blue" x1="160.0" x2="166.0" y1="100" y2="106"/>
    <line stroke="blue" x1="160.0" x2="154.0" y1="414" y2="420"/>
    <line stroke="blue" x1="160.0" x2="166.0" y1="414" y2="420"/>
    <line stroke="blue" x1="200.0" x2="194.0" y1="106" y2="100"/>
    <line stroke="blue" x1="200.0" x2="206.0" y1="106" y2="100"/>
    <line stroke="blue" x1="200.0" x2="194.0" y1="420" y2="414"/>
    <line stroke="blue" x1="200.0" x2="206.0" y1="420" y2="414"/>
    <line stroke="blue" x1="240.0" x2="234.0" y1="100" y2="106"/>
    <line stroke="blue" x1="240.0" x2="246.0" y1="100" y2="106"/>
    <line stroke="blue" x1="240.0" x2="234.0" y1="414" y2="420"/>
    <line stroke="blue" x1="240.0" x2="246.0" y1="414" y2="420"/>
    <line stroke="blue" x1="280.0" x2="274.0" y1="106" y2="100"/>
    <line stroke="blue" x1="280.0" x2="286.0" y1="106" y2="100"/>
    <line stroke="blue" x1="280.0" x2="274.0" y1="420" y2="414"/>
    <line stroke="blue" x1="280.0" x2="286.0" y1="420" y2="414"/>
    <line stroke="blue" x1="320.0" x2="314.0" y1="100" y2="106"/>
    <line stroke="blue" x1="320.0" x2="326.0" y1="100" y2="106"/>
    <line stroke="blue" x1="320.0" x2="314.0" y1="414" y2="420"/>
    <line stroke="blue" x1="320.0" x2="326.0" y1="414" y2="420"/>
    <line stroke="blue" x1="360.0" x2="354.0" y1="106" y2="100"/>
    <line stroke="blue" x1="360.0" x2="366.0" y1="106" y2="100"/>
    <line stroke="blue" x1="360.0" x2="354.0" y1="420" y2="414"/>
    <line stroke="blue" x1="360.0" x2="366.0" y1="420" y2="414"/>
    <line stroke="blue" x1="400.0" x2="394.0" y1="100" y2="106"/>
    <line stroke="blue" x1="400.0" x2="406.0" y1="100" y2="106"/>
    <line stroke="blue" x1="400.0" x2="394.0" y1="414" y2="420"/>
    <line stroke="blue" x1="400.0" x2="406.0" y1="414" y2="420"/>
  </g>
  <g
     class="SenseWies"
     id="g6039" />
  <g
     transform="translate(0.32051719,0.69261764)"
     id="g5269">
    <path
       sodipodi:nodetypes="ccccccccccccccccccccccc"
       inkscape:connector-curvature="0"
       id="path4420"
       d="m 74.777543,135.64615 h -0.137712 v 0 l 9.163135,0.053 C 95.24582,135.91768 93.89021,94.75289 114.85169,115.12711 l 9.77754,10.19068 c 6.56427,5.79484 22.72114,7.10652 31.12289,-0.96398 l 10.60381,-8.95127 c 10.61717,-7.59421 19.6298,-6.478 27.68009,-0.13771 l 11.29237,9.91525 c 10.25982,8.48381 19.85031,7.87391 28.36864,0.13772 l 11.28724,-9.6355 c 16.41716,-11.04346 16.06826,60.76796 -2.06923,47.22175 l -9.21801,-7.84049 c -9.98082,-7.2207 -17.0036,-8.06381 -27.26694,0.13771 l -12.80721,11.29237 c -9.84892,8.69335 -18.88659,8.05734 -27.26695,-0.13771 L 154.375,154.92585 c -9.85239,-8.6519 -19.56115,-8.23845 -29.60805,0.27542 L 114,165.37924 C 91.12391,186.19111 97.703522,141.75372 83.978814,141.84322 v 0 l -9.06356,-0.13771"
       style="fill:none;stroke:#404040;stroke-width:1px;stroke-linecap:butt;stroke-linejoin:miter;stroke-opacity:1" />
    <path
       style="fill:none;stroke:#404040;stroke-width:1px;stroke-linecap:butt;stroke-linejoin:miter;stroke-opacity:0.94117647"
       d="m 93.319941,132.1676 -1.816034,-4.64807 -4.925717,2.06508"
       id="path5260"
       inkscape:connector-curvature="0"
       sodipodi:nodetypes="ccc" />
    <path
       sodipodi:nodetypes="ccc"
       inkscape:connector-curvature="0"
       id="path5264"
       d="m 95.397268,149.94284 -4.384891,-2.00254 -1.760861,4.28131"
       style="fill:none;stroke:#404040;stroke-width:1px;stroke-linecap:butt;stroke-linejoin:miter;stroke-opacity:1" />
  </g>
  <g
     id="g6242"
     transform="translate(0.32051719,79.535024)">
    <path
       style="fill:none;stroke:#404040;stroke-width:1px;stroke-linecap:butt;stroke-linejoin:miter;stroke-opacity:1"
       d="m 74.777543,135.64615 h -0.137712 v 0 l 9.163135,0.053 C 95.24582,135.91768 93.89021,94.75289 114.85169,115.12711 l 9.77754,10.19068 c 6.56427,5.79484 22.72114,7.10652 31.12289,-0.96398 l 10.60381,-8.95127 c 10.61717,-7.59421 19.6298,-6.478 27.68009,-0.13771 l 11.29237,9.91525 c 10.25982,8.48381 19.85031,7.87391 28.36864,0.13772 l 11.28724,-9.6355 c 16.41716,-11.04346 16.06826,60.76796 -2.06923,47.22175 l -9.21801,-7.84049 c -9.98082,-7.2207 -17.0036,-8.06381 -27.26694,0.13771 l -12.80721,11.29237 c -9.84892,8.69335 -18.88659,8.05734 -27.26695,-0.13771 L 154.375,154.92585 c -9.85239,-8.6519 -19.56115,-8.23845 -29.60805,0.27542 L 114,165.37924 C 91.12391,186.19111 97.703522,141.75372 83.978814,141.84322 v 0 l -9.06356,-0.13771"
       id="path6236"
       inkscape:connector-curvature="0"
       sodipodi:nodetypes="ccccccccccccccccccccccc" />
    <path
       sodipodi:nodetypes="ccc"
       inkscape:connector-curvature="0"
       id="path6238"
       d="m 93.319941,132.1676 -1.816034,-4.64807 -4.925717,2.06508"
       style="fill:none;stroke:#404040;stroke-width:1px;stroke-linecap:butt;stroke-linejoin:miter;stroke-opacity:0.94117647" />
    <path
       style="fill:none;stroke:#404040;stroke-width:1px;stroke-linecap:butt;stroke-linejoin:miter;stroke-opacity:1"
       d="m 95.397268,149.94284 -4.384891,-2.00254 -1.760861,4.28131"
       id="path6240"
       inkscape:connector-curvature="0"
       sodipodi:nodetypes="ccc" />
  </g>
  <g
     transform="matrix(0.99945345,0,0,1.0000043,0.36131294,159.53415)"
     id="g6250">
    <path
       sodipodi:nodetypes="ccccccccccccccccccccccc"
       inkscape:connector-curvature="0"
       id="path6244"
       d="m 74.777543,135.64615 h -0.137712 v 0 l 9.163135,0.053 C 95.24582,135.91768 93.89021,94.75289 114.85169,115.12711 l 9.77754,10.19068 c 6.56427,5.79484 22.72114,7.10652 31.12289,-0.96398 l 10.60381,-8.95127 c 10.61717,-7.59421 19.6298,-6.478 27.68009,-0.13771 l 11.29237,9.91525 c 10.25982,8.48381 19.85031,7.87391 28.36864,0.13772 l 11.28724,-9.6355 c 16.41716,-11.04346 16.06826,60.76796 -2.06923,47.22175 l -9.21801,-7.84049 c -9.98082,-7.2207 -17.0036,-8.06381 -27.26694,0.13771 l -12.80721,11.29237 c -9.84892,8.69335 -18.88659,8.05734 -27.26695,-0.13771 L 154.375,154.92585 c -9.85239,-8.6519 -19.56115,-8.23845 -29.60805,0.27542 L 114,165.37924 C 91.12391,186.19111 97.703522,141.75372 83.978814,141.84322 v 0 l -9.06356,-0.13771"
       style="fill:none;stroke:#404040;stroke-width:1px;stroke-linecap:butt;stroke-linejoin:miter;stroke-opacity:1" />
    <path
       style="fill:none;stroke:#404040;stroke-width:1px;stroke-linecap:butt;stroke-linejoin:miter;stroke-opacity:0.94117647"
       d="m 93.319941,132.1676 -1.816034,-4.64807 -4.925717,2.06508"
       id="path6246"
       inkscape:connector-curvature="0"
       sodipodi:nodetypes="ccc" />
    <path
       sodipodi:nodetypes="ccc"
       inkscape:connector-curvature="0"
       id="path6248"
       d="m 95.397268,149.94284 -4.384891,-2.00254 -1.760861,4.28131"
       style="fill:none;stroke:#404040;stroke-width:1px;stroke-linecap:butt;stroke-linejoin:miter;stroke-opacity:1" />
  </g>
  <g
     id="g6258"
     transform="matrix(0.99945345,0,0,1.0000043,0.36131294,239.53401)">
    <path
       style="fill:none;stroke:#404040;stroke-width:1px;stroke-linecap:butt;stroke-linejoin:miter;stroke-opacity:1"
       d="m 74.777543,135.64615 h -0.137712 v 0 l 9.163135,0.053 C 95.24582,135.91768 93.89021,94.75289 114.85169,115.12711 l 9.77754,10.19068 c 6.56427,5.79484 22.72114,7.10652 31.12289,-0.96398 l 10.60381,-8.95127 c 10.61717,-7.59421 19.6298,-6.478 27.68009,-0.13771 l 11.29237,9.91525 c 10.25982,8.48381 19.85031,7.87391 28.36864,0.13772 l 11.28724,-9.6355 c 16.41716,-11.04346 16.06826,60.76796 -2.06923,47.22175 l -9.21801,-7.84049 c -9.98082,-7.2207 -17.0036,-8.06381 -27.26694,0.13771 l -12.80721,11.29237 c -9.84892,8.69335 -18.88659,8.05734 -27.26695,-0.13771 L 154.375,154.92585 c -9.85239,-8.6519 -19.56115,-8.23845 -29.60805,0.27542 L 114,165.37924 C 91.12391,186.19111 97.703522,141.75372 83.978814,141.84322 v 0 l -9.06356,-0.13771"
       id="path6252"
       inkscape:connector-curvature="0"
       sodipodi:nodetypes="ccccccccccccccccccccccc" />
    <path
       sodipodi:nodetypes="ccc"
       inkscape:connector-curvature="0"
       id="path6254"
       d="m 93.319941,132.1676 -1.816034,-4.64807 -4.925717,2.06508"
       style="fill:none;stroke:#404040;stroke-width:1px;stroke-linecap:butt;stroke-linejoin:miter;stroke-opacity:0.94117647" />
    <path
       style="fill:none;stroke:#404040;stroke-width:1px;stroke-linecap:butt;stroke-linejoin:miter;stroke-opacity:1"
       d="m 95.397268,149.94284 -4.384891,-2.00254 -1.760861,4.28131"
       id="path6256"
       inkscape:connector-curvature="0"
       sodipodi:nodetypes="ccc" />
  </g>
  <g
     id="g6266"
     transform="rotate(-180,259.94058,139.95999)">
    <path
       style="fill:none;stroke:#404040;stroke-width:1px;stroke-linecap:butt;stroke-linejoin:miter;stroke-opacity:1"
       d="m 74.777543,135.64615 h -0.137712 v 0 l 9.163135,0.053 C 95.24582,135.91768 93.89021,94.75289 114.85169,115.12711 l 9.77754,10.19068 c 6.56427,5.79484 22.72114,7.10652 31.12289,-0.96398 l 10.60381,-8.95127 c 10.61717,-7.59421 19.6298,-6.478 27.68009,-0.13771 l 11.29237,9.91525 c 10.25982,8.48381 19.85031,7.87391 28.36864,0.13772 l 11.28724,-9.6355 c 16.41716,-11.04346 16.06826,60.76796 -2.06923,47.22175 l -9.21801,-7.84049 c -9.98082,-7.2207 -17.0036,-8.06381 -27.26694,0.13771 l -12.80721,11.29237 c -9.84892,8.69335 -18.88659,8.05734 -27.26695,-0.13771 L 154.375,154.92585 c -9.85239,-8.6519 -19.56115,-8.23845 -29.60805,0.27542 L 114,165.37924 C 91.12391,186.19111 97.703522,141.75372 83.978814,141.84322 v 0 l -9.06356,-0.13771"
       id="path6260"
       inkscape:connector-curvature="0"
       sodipodi:nodetypes="ccccccccccccccccccccccc" />
    <path
       sodipodi:nodetypes="ccc"
       inkscape:connector-curvature="0"
       id="path6262"
       d="m 93.319941,132.1676 -1.816034,-4.64807 -4.925717,2.06508"
       style="fill:none;stroke:#404040;stroke-width:1px;stroke-linecap:butt;stroke-linejoin:miter;stroke-opacity:0.94117647" />
    <path
       style="fill:none;stroke:#404040;stroke-width:1px;stroke-linecap:butt;stroke-linejoin:miter;stroke-opacity:1"
       d="m 95.397268,149.94284 -4.384891,-2.00254 -1.760861,4.28131"
       id="path6264"
       inkscape:connector-curvature="0"
       sodipodi:nodetypes="ccc" />
  </g>
  <g
     transform="rotate(-180,259.94058,179.96005)"
     id="g6274">
    <path
       sodipodi:nodetypes="ccccccccccccccccccccccc"
       inkscape:connector-curvature="0"
       id="path6268"
       d="m 74.777543,135.64615 h -0.137712 v 0 l 9.163135,0.053 C 95.24582,135.91768 93.89021,94.75289 114.85169,115.12711 l 9.77754,10.19068 c 6.56427,5.79484 22.72114,7.10652 31.12289,-0.96398 l 10.60381,-8.95127 c 10.61717,-7.59421 19.6298,-6.478 27.68009,-0.13771 l 11.29237,9.91525 c 10.25982,8.48381 19.85031,7.87391 28.36864,0.13772 l 11.28724,-9.6355 c 16.41716,-11.04346 16.06826,60.76796 -2.06923,47.22175 l -9.21801,-7.84049 c -9.98082,-7.2207 -17.0036,-8.06381 -27.26694,0.13771 l -12.80721,11.29237 c -9.84892,8.69335 -18.88659,8.05734 -27.26695,-0.13771 L 154.375,154.92585 c -9.85239,-8.6519 -19.56115,-8.23845 -29.60805,0.27542 L 114,165.37924 C 91.12391,186.19111 97.703522,141.75372 83.978814,141.84322 v 0 l -9.06356,-0.13771"
       style="fill:none;stroke:#404040;stroke-width:1px;stroke-linecap:butt;stroke-linejoin:miter;stroke-opacity:1" />
    <path
       style="fill:none;stroke:#404040;stroke-width:1px;stroke-linecap:butt;stroke-linejoin:miter;stroke-opacity:0.94117647"
       d="m 93.319941,132.1676 -1.816034,-4.64807 -4.925717,2.06508"
       id="path6270"
       inkscape:connector-curvature="0"
       sodipodi:nodetypes="ccc" />
    <path
       sodipodi:nodetypes="ccc"
       inkscape:connector-curvature="0"
       id="path6272"
       d="m 95.397268,149.94284 -4.384891,-2.00254 -1.760861,4.28131"
       style="fill:none;stroke:#404040;stroke-width:1px;stroke-linecap:butt;stroke-linejoin:miter;stroke-opacity:1" />
  </g>
  <g
     id="g6282"
     transform="rotate(-180,259.94058,219.96005)">
    <path
       style="fill:none;stroke:#404040;stroke-width:1px;stroke-linecap:butt;stroke-linejoin:miter;stroke-opacity:1"
       d="m 74.777543,135.64615 h -0.137712 v 0 l 9.163135,0.053 C 95.24582,135.91768 93.89021,94.75289 114.85169,115.12711 l 9.77754,10.19068 c 6.56427,5.79484 22.72114,7.10652 31.12289,-0.96398 l 10.60381,-8.95127 c 10.61717,-7.59421 19.6298,-6.478 27.68009,-0.13771 l 11.29237,9.91525 c 10.25982,8.48381 19.85031,7.87391 28.36864,0.13772 l 11.28724,-9.6355 c 16.41716,-11.04346 16.06826,60.76796 -2.06923,47.22175 l -9.21801,-7.84049 c -9.98082,-7.2207 -17.0036,-8.06381 -27.26694,0.13771 l -12.80721,11.29237 c -9.84892,8.69335 -18.88659,8.05734 -27.26695,-0.13771 L 154.375,154.92585 c -9.85239,-8.6519 -19.56115,-8.23845 -29.60805,0.27542 L 114,165.37924 C 91.12391,186.19111 97.703522,141.75372 83.978814,141.84322 v 0 l -9.06356,-0.13771"
       id="path6276"
       inkscape:connector-curvature="0"
       sodipodi:nodetypes="ccccccccccccccccccccccc" />
    <path
       sodipodi:nodetypes="ccc"
       inkscape:connector-curvature="0"
       id="path6278"
       d="m 93.319941,132.1676 -1.816034,-4.64807 -4.925717,2.06508"
       style="fill:none;stroke:#404040;stroke-width:1px;stroke-linecap:butt;stroke-linejoin:miter;stroke-opacity:0.94117647" />
    <path
       style="fill:none;stroke:#404040;stroke-width:1px;stroke-linecap:butt;stroke-linejoin:miter;stroke-opacity:1"
       d="m 95.397268,149.94284 -4.384891,-2.00254 -1.760861,4.28131"
       id="path6280"
       inkscape:connector-curvature="0"
       sodipodi:nodetypes="ccc" />
  </g>
  <g
     transform="rotate(-180,259.94058,259.96005)"
     id="g6290">
    <path
       sodipodi:nodetypes="ccccccccccccccccccccccc"
       inkscape:connector-curvature="0"
       id="path6284"
       d="m 74.777543,135.64615 h -0.137712 v 0 l 9.163135,0.053 C 95.24582,135.91768 93.89021,94.75289 114.85169,115.12711 l 9.77754,10.19068 c 6.56427,5.79484 22.72114,7.10652 31.12289,-0.96398 l 10.60381,-8.95127 c 10.61717,-7.59421 19.6298,-6.478 27.68009,-0.13771 l 11.29237,9.91525 c 10.25982,8.48381 19.85031,7.87391 28.36864,0.13772 l 11.28724,-9.6355 c 16.41716,-11.04346 16.06826,60.76796 -2.06923,47.22175 l -9.21801,-7.84049 c -9.98082,-7.2207 -17.0036,-8.06381 -27.26694,0.13771 l -12.80721,11.29237 c -9.84892,8.69335 -18.88659,8.05734 -27.26695,-0.13771 L 154.375,154.92585 c -9.85239,-8.6519 -19.56115,-8.23845 -29.60805,0.27542 L 114,165.37924 C 91.12391,186.19111 97.703522,141.75372 83.978814,141.84322 v 0 l -9.06356,-0.13771"
       style="fill:none;stroke:#404040;stroke-width:1px;stroke-linecap:butt;stroke-linejoin:miter;stroke-opacity:1" />
    <path
       style="fill:none;stroke:#404040;stroke-width:1px;stroke-linecap:butt;stroke-linejoin:miter;stroke-opacity:0.94117647"
       d="m 93.319941,132.1676 -1.816034,-4.64807 -4.925717,2.06508"
       id="path6286"
       inkscape:connector-curvature="0"
       sodipodi:nodetypes="ccc" />
    <path
       sodipodi:nodetypes="ccc"
       inkscape:connector-curvature="0"
       id="path6288"
       d="m 95.397268,149.94284 -4.384891,-2.00254 -1.760861,4.28131"
       style="fill:none;stroke:#404040;stroke-width:1px;stroke-linecap:butt;stroke-linejoin:miter;stroke-opacity:1" />
  </g>
  <g class="Cores">
      <polygon id="core_00" points="111.16116523516816,125.3033008588991 114.6966991411009,128.83883476483186 128.83883476483186,114.6966991411009 125.3033008588991,111.16116523516816"/>
      <polygon id="core_01" points="154.6966991411009,111.16116523516816 151.16116523516814,114.6966991411009 165.3033008588991,128.83883476483186 168.83883476483186,125.3033008588991"/>
      <polygon id="core_02" points="191.16116523516814,125.3033008588991 194.6966991411009,128.83883476483186 208.83883476483186,114.6966991411009 205.3033008588991,111.16116523516816"/>
      <polygon id="core_03" points="234.6966991411009,111.16116523516816 231.16116523516814,114.6966991411009 245.3033008588991,128.83883476483186 248.83883476483186,125.3033008588991"/>
      <polygon id="core_04" points="271.16116523516814,125.3033008588991 274.6966991411009,128.83883476483186 288.83883476483186,114.6966991411009 285.3033008588991,111.16116523516816"/>
      <polygon id="core_05" points="314.6966991411009,111.16116523516816 311.16116523516814,114.6966991411009 325.3033008588991,128.83883476483186 328.83883476483186,125.3033008588991"/>
      <polygon id="core_06" points="351.16116523516814,125.3033008588991 354.6966991411009,128.83883476483186 368.83883476483186,114.6966991411009 365.3033008588991,111.16116523516816"/>
      <polygon id="core_07" points="394.6966991411009,111.16116523516816 391.16116523516814,114.6966991411009 405.3033008588991,128.83883476483186 408.83883476483186,125.3033008588991"/>
      <polygon id="core_10" points="114.6966991411009,151.16116523516814 111.16116523516816,154.6966991411009 125.3033008588991,168.83883476483186 128.83883476483186,165.3033008588991"/>
      <polygon id="core_11" points="151.16116523516814,165.3033008588991 154.6966991411009,168.83883476483186 168.83883476483186,154.6966991411009 165.3033008588991,151.16116523516814"/>
      <polygon id="core_12" points="194.6966991411009,151.16116523516814 191.16116523516814,154.6966991411009 205.3033008588991,168.83883476483186 208.83883476483186,165.3033008588991"/>
      <polygon id="core_13" points="231.16116523516814,165.3033008588991 234.6966991411009,168.83883476483186 248.83883476483186,154.6966991411009 245.3033008588991,151.16116523516814"/>
      <polygon id="core_14" points="274.6966991411009,151.16116523516814 271.16116523516814,154.6966991411009 285.3033008588991,168.83883476483186 288.83883476483186,165.3033008588991"/>
      <polygon id="core_15" points="311.16116523516814,165.3033008588991 314.6966991411009,168.83883476483186 328.83883476483186,154.6966991411009 325.3033008588991,151.16116523516814"/>
      <polygon id="core_16" points="354.6966991411009,151.16116523516814 351.16116523516814,154.6966991411009 365.3033008588991,168.83883476483186 368.83883476483186,165.3033008588991"/>
      <polygon id="core_17" points="391.16116523516814,165.3033008588991 394.6966991411009,168.83883476483186 408.83883476483186,154.6966991411009 405.3033008588991,151.16116523516814"/>
      <polygon id="core_20" points="111.16116523516816,205.3033008588991 114.6966991411009,208.83883476483186 128.83883476483186,194.6966991411009 125.3033008588991,191.16116523516814"/>
      <polygon id="core_21" points="154.6966991411009,191.16116523516814 151.16116523516814,194.6966991411009 165.3033008588991,208.83883476483186 168.83883476483186,205.3033008588991"/>
      <polygon id="core_22" points="191.16116523516814,205.3033008588991 194.6966991411009,208.83883476483186 208.83883476483186,194.6966991411009 205.3033008588991,191.16116523516814"/>
      <polygon id="core_23" points="234.6966991411009,191.16116523516814 231.16116523516814,194.6966991411009 245.3033008588991,208.83883476483186 248.83883476483186,205.3033008588991"/>
      <polygon id="core_24" points="271.16116523516814,205.3033008588991 274.6966991411009,208.83883476483186 288.83883476483186,194.6966991411009 285.3033008588991,191.16116523516814"/>
      <polygon id="core_25" points="314.6966991411009,191.16116523516814 311.16116523516814,194.6966991411009 325.3033008588991,208.83883476483186 328.83883476483186,205.3033008588991"/>
      <polygon id="core_26" points="351.16116523516814,205.3033008588991 354.6966991411009,208.83883476483186 368.83883476483186,194.6966991411009 365.3033008588991,191.16116523516814"/>
      <polygon id="core_27" points="394.6966991411009,191.16116523516814 391.16116523516814,194.6966991411009 405.3033008588991,208.83883476483186 408.83883476483186,205.3033008588991"/>
      <polygon id="core_30" points="114.6966991411009,231.16116523516814 111.16116523516816,234.6966991411009 125.3033008588991,248.83883476483186 128.83883476483186,245.3033008588991"/>
      <polygon id="core_31" points="151.16116523516814,245.3033008588991 154.6966991411009,248.83883476483186 168.83883476483186,234.6966991411009 165.3033008588991,231.16116523516814"/>
      <polygon id="core_32" points="194.6966991411009,231.16116523516814 191.16116523516814,234.6966991411009 205.3033008588991,248.83883476483186 208.83883476483186,245.3033008588991"/>
      <polygon id="core_33" points="231.16116523516814,245.3033008588991 234.6966991411009,248.83883476483186 248.83883476483186,234.6966991411009 245.3033008588991,231.16116523516814"/>
      <polygon id="core_34" points="274.6966991411009,231.16116523516814 271.16116523516814,234.6966991411009 285.3033008588991,248.83883476483186 288.83883476483186,245.3033008588991"/>
      <polygon id="core_35" points="311.16116523516814,245.3033008588991 314.6966991411009,248.83883476483186 328.83883476483186,234.6966991411009 325.3033008588991,231.16116523516814"/>
      <polygon id="core_36" points="354.6966991411009,231.16116523516814 351.16116523516814,234.6966991411009 365.3033008588991,248.83883476483186 368.83883476483186,245.3033008588991"/>
      <polygon id="core_37" points="391.16116523516814,245.3033008588991 394.6966991411009,248.83883476483186 408.83883476483186,234.6966991411009 405.3033008588991,231.16116523516814"/>
      <polygon id="core_40" points="111.16116523516816,285.3033008588991 114.6966991411009,288.83883476483186 128.83883476483186,274.6966991411009 125.3033008588991,271.16116523516814"/>
      <polygon id="core_41" points="154.6966991411009,271.16116523516814 151.16116523516814,274.6966991411009 165.3033008588991,288.83883476483186 168.83883476483186,285.3033008588991"/>
      <polygon id="core_42" points="191.16116523516814,285.3033008588991 194.6966991411009,288.83883476483186 208.83883476483186,274.6966991411009 205.3033008588991,271.16116523516814"/>
      <polygon id="core_43" points="234.6966991411009,271.16116523516814 231.16116523516814,274.6966991411009 245.3033008588991,288.83883476483186 248.83883476483186,285.3033008588991"/>
      <polygon id="core_44" points="271.16116523516814,285.3033008588991 274.6966991411009,288.83883476483186 288.83883476483186,274.6966991411009 285.3033008588991,271.16116523516814"/>
      <polygon id="core_45" points="314.6966991411009,271.16116523516814 311.16116523516814,274.6966991411009 325.3033008588991,288.83883476483186 328.83883476483186,285.3033008588991"/>
      <polygon id="core_46" points="351.16116523516814,285.3033008588991 354.6966991411009,288.83883476483186 368.83883476483186,274.6966991411009 365.3033008588991,271.16116523516814"/>
      <polygon id="core_47" points="394.6966991411009,271.16116523516814 391.16116523516814,274.6966991411009 405.3033008588991,288.83883476483186 408.83883476483186,285.3033008588991"/>
      <polygon id="core_50" points="114.6966991411009,311.16116523516814 111.16116523516816,314.6966991411009 125.3033008588991,328.83883476483186 128.83883476483186,325.3033008588991"/>
      <polygon id="core_51" points="151.16116523516814,325.3033008588991 154.6966991411009,328.83883476483186 168.83883476483186,314.6966991411009 165.3033008588991,311.16116523516814"/>
      <polygon id="core_52" points="194.6966991411009,311.16116523516814 191.16116523516814,314.6966991411009 205.3033008588991,328.83883476483186 208.83883476483186,325.3033008588991"/>
      <polygon id="core_53" points="231.16116523516814,325.3033008588991 234.6966991411009,328.83883476483186 248.83883476483186,314.6966991411009 245.3033008588991,311.16116523516814"/>
      <polygon id="core_54" points="274.6966991411009,311.16116523516814 271.16116523516814,314.6966991411009 285.3033008588991,328.83883476483186 288.83883476483186,325.3033008588991"/>
      <polygon id="core_55" points="311.16116523516814,325.3033008588991 314.6966991411009,328.83883476483186 328.83883476483186,314.6966991411009 325.3033008588991,311.16116523516814"/>
      <polygon id="core_56" points="354.6966991411009,311.16116523516814 351.16116523516814,314.6966991411009 365.3033008588991,328.83883476483186 368.83883476483186,325.3033008588991"/>
      <polygon id="core_57" points="391.16116523516814,325.3033008588991 394.6966991411009,328.83883476483186 408.83883476483186,314.6966991411009 405.3033008588991,311.16116523516814"/>
      <polygon id="core_60" points="111.16116523516816,365.3033008588991 114.6966991411009,368.83883476483186 128.83883476483186,354.6966991411009 125.3033008588991,351.16116523516814"/>
      <polygon id="core_61" points="154.6966991411009,351.16116523516814 151.16116523516814,354.6966991411009 165.3033008588991,368.83883476483186 168.83883476483186,365.3033008588991"/>
      <polygon id="core_62" points="191.16116523516814,365.3033008588991 194.6966991411009,368.83883476483186 208.83883476483186,354.6966991411009 205.3033008588991,351.16116523516814"/>
      <polygon id="core_63" points="234.6966991411009,351.16116523516814 231.16116523516814,354.6966991411009 245.3033008588991,368.83883476483186 248.83883476483186,365.3033008588991"/>
      <polygon id="core_64" points="271.16116523516814,365.3033008588991 274.6966991411009,368.83883476483186 288.83883476483186,354.6966991411009 285.3033008588991,351.16116523516814"/>
      <polygon id="core_65" points="314.6966991411009,351.16116523516814 311.16116523516814,354.6966991411009 325.3033008588991,368.83883476483186 328.83883476483186,365.3033008588991"/>
      <polygon id="core_66" points="351.16116523516814,365.3033008588991 354.6966991411009,368.83883476483186 368.83883476483186,354.6966991411009 365.3033008588991,351.16116523516814"/>
      <polygon id="core_67" points="394.6966991411009,351.16116523516814 391.16116523516814,354.6966991411009 405.3033008588991,368.83883476483186 408.83883476483186,365.3033008588991"/>
      <polygon id="core_70" points="114.6966991411009,391.16116523516814 111.16116523516816,394.6966991411009 125.3033008588991,408.83883476483186 128.83883476483186,405.3033008588991"/>
      <polygon id="core_71" points="151.16116523516814,405.3033008588991 154.6966991411009,408.83883476483186 168.83883476483186,394.6966991411009 165.3033008588991,391.16116523516814"/>
      <polygon id="core_72" points="194.6966991411009,391.16116523516814 191.16116523516814,394.6966991411009 205.3033008588991,408.83883476483186 208.83883476483186,405.3033008588991"/>
      <polygon id="core_73" points="231.16116523516814,405.3033008588991 234.6966991411009,408.83883476483186 248.83883476483186,394.6966991411009 245.3033008588991,391.16116523516814"/>
      <polygon id="core_74" points="274.6966991411009,391.16116523516814 271.16116523516814,394.6966991411009 285.3033008588991,408.83883476483186 288.83883476483186,405.3033008588991"/>
      <polygon id="core_75" points="311.16116523516814,405.3033008588991 314.6966991411009,408.83883476483186 328.83883476483186,394.6966991411009 325.3033008588991,391.16116523516814"/>
      <polygon id="core_76" points="354.6966991411009,391.16116523516814 351.16116523516814,394.6966991411009 365.3033008588991,408.83883476483186 368.83883476483186,405.3033008588991"/>
      <polygon id="core_77" points="391.16116523516814,405.3033008588991 394.6966991411009,408.83883476483186 408.83883476483186,394.6966991411009 405.3033008588991,391.16116523516814"/>
   </g>
  <text
     xml:space="preserve"
     style="font-style:normal;font-weight:normal;font-size:40px;line-height:1.25;font-family:sans-serif;letter-spacing:0px;word-spacing:0px;fill:#000000;fill-opacity:1;stroke:none"
     x="49"
     y="124"
     id="text6294"><tspan
       sodipodi:role="line"
       id="tspan6292"
       x="49"
       y="124"
       style="font-style:normal;font-variant:normal;font-weight:normal;font-stretch:normal;font-size:16px;font-family:sans-serif;-inkscape-font-specification:'sans-serif, Normal';font-variant-ligatures:normal;font-variant-caps:normal;font-variant-numeric:normal;font-feature-settings:normal;text-align:start;writing-mode:lr-tb;text-anchor:start">X0_P</tspan></text>
  <text
     id="text6318"
     y="405.5"
     x="50"
     style="font-style:normal;font-weight:normal;font-size:40px;line-height:1.25;font-family:sans-serif;letter-spacing:0px;word-spacing:0px;fill:#000000;fill-opacity:1;stroke:none"
     xml:space="preserve"><tspan
       style="font-style:normal;font-variant:normal;font-weight:normal;font-stretch:normal;font-size:16px;font-family:sans-serif;-inkscape-font-specification:'sans-serif, Normal';font-variant-ligatures:normal;font-variant-caps:normal;font-variant-numeric:normal;font-feature-settings:normal;text-align:start;writing-mode:lr-tb;text-anchor:start"
       y="405.5"
       x="50"
       id="tspan6316"
       sodipodi:role="line">X0_N</tspan></text>
  <text
     id="text6322"
     y="124"
     x="49"
     style="font-style:normal;font-weight:normal;font-size:40px;line-height:1.25;font-family:sans-serif;letter-spacing:0px;word-spacing:0px;fill:#000000;fill-opacity:1;stroke:none"
     xml:space="preserve"><tspan
       style="font-style:normal;font-variant:normal;font-weight:normal;font-stretch:normal;font-size:16px;font-family:sans-serif;-inkscape-font-specification:'sans-serif, Normal';font-variant-ligatures:normal;font-variant-caps:normal;font-variant-numeric:normal;font-feature-settings:normal;text-align:start;writing-mode:lr-tb;text-anchor:start"
       y="124"
       x="49"
       id="tspan6320"
       sodipodi:role="line">X0_P</tspan></text>
  <text
     xml:space="preserve"
     style="font-style:normal;font-weight:normal;font-size:40px;line-height:1.25;font-family:sans-serif;letter-spacing:0px;word-spacing:0px;fill:#000000;fill-opacity:1;stroke:none"
     x="48"
     y="165.5"
     id="text6326"><tspan
       sodipodi:role="line"
       id="tspan6324"
       x="48"
       y="165.5"
       style="font-style:normal;font-variant:normal;font-weight:normal;font-stretch:normal;font-size:16px;font-family:sans-serif;-inkscape-font-specification:'sans-serif, Normal';font-variant-ligatures:normal;font-variant-caps:normal;font-variant-numeric:normal;font-feature-settings:normal;text-align:start;writing-mode:lr-tb;text-anchor:start">X1_N</tspan></text>
  <text
     id="text6330"
     y="165.5"
     x="48"
     style="font-style:normal;font-weight:normal;font-size:40px;line-height:1.25;font-family:sans-serif;letter-spacing:0px;word-spacing:0px;fill:#000000;fill-opacity:1;stroke:none"
     xml:space="preserve"><tspan
       style="font-style:normal;font-variant:normal;font-weight:normal;font-stretch:normal;font-size:16px;font-family:sans-serif;-inkscape-font-specification:'sans-serif, Normal';font-variant-ligatures:normal;font-variant-caps:normal;font-variant-numeric:normal;font-feature-settings:normal;text-align:start;writing-mode:lr-tb;text-anchor:start"
       y="165.5"
       x="48"
       id="tspan6328"
       sodipodi:role="line">X1_N</tspan></text>
  <text
     xml:space="preserve"
     style="font-style:normal;font-weight:normal;font-size:40px;line-height:1.25;font-family:sans-serif;letter-spacing:0px;word-spacing:0px;fill:#000000;fill-opacity:1;stroke:none"
     x="50.5"
     y="363.5"
     id="text6334"><tspan
       sodipodi:role="line"
       id="tspan6332"
       x="50.5"
       y="363.5"
       style="font-style:normal;font-variant:normal;font-weight:normal;font-stretch:normal;font-size:16px;font-family:sans-serif;-inkscape-font-specification:'sans-serif, Normal';font-variant-ligatures:normal;font-variant-caps:normal;font-variant-numeric:normal;font-feature-settings:normal;text-align:start;writing-mode:lr-tb;text-anchor:start">X1_P</tspan></text>
  <text
     xml:space="preserve"
     style="font-style:normal;font-weight:normal;font-size:40px;line-height:1.25;font-family:sans-serif;letter-spacing:0px;word-spacing:0px;fill:#000000;fill-opacity:1;stroke:none"
     x="-94.316406"
     y="125.41797"
     id="text6338"
     transform="rotate(-90)"><tspan
       sodipodi:role="line"
       id="tspan6336"
       x="-94.316406"
       y="125.41797"
       style="font-style:normal;font-variant:normal;font-weight:normal;font-stretch:normal;font-size:16px;font-family:sans-serif;-inkscape-font-specification:'sans-serif, Normal';font-variant-ligatures:normal;font-variant-caps:normal;font-variant-numeric:normal;font-feature-settings:normal;text-align:start;writing-mode:lr-tb;text-anchor:start">Y0_P</tspan><tspan
       sodipodi:role="line"
       x="-94.316406"
       y="175.41797"
       style="font-style:normal;font-variant:normal;font-weight:normal;font-stretch:normal;font-size:16px;font-family:sans-serif;-inkscape-font-specification:'sans-serif, Normal';font-variant-ligatures:normal;font-variant-caps:normal;font-variant-numeric:normal;font-feature-settings:normal;text-align:start;writing-mode:lr-tb;text-anchor:start"
       id="tspan6340" /></text>
  <text
     transform="rotate(-90)"
     id="text6368"
     y="205.41797"
     x="-94.816406"
     style="font-style:normal;font-weight:normal;font-size:40px;line-height:1.25;font-family:sans-serif;letter-spacing:0px;word-spacing:0px;fill:#000000;fill-opacity:1;stroke:none"
     xml:space="preserve"><tspan
       style="font-style:normal;font-variant:normal;font-weight:normal;font-stretch:normal;font-size:16px;font-family:sans-serif;-inkscape-font-specification:'sans-serif, Normal';font-variant-ligatures:normal;font-variant-caps:normal;font-variant-numeric:normal;font-feature-settings:normal;text-align:start;writing-mode:lr-tb;text-anchor:start"
       y="205.41797"
       x="-94.816406"
       id="tspan6364"
       sodipodi:role="line">Y1_P</tspan><tspan
       id="tspan6366"
       style="font-style:normal;font-variant:normal;font-weight:normal;font-stretch:normal;font-size:16px;font-family:sans-serif;-inkscape-font-specification:'sans-serif, Normal';font-variant-ligatures:normal;font-variant-caps:normal;font-variant-numeric:normal;font-feature-settings:normal;text-align:start;writing-mode:lr-tb;text-anchor:start"
       y="255.41797"
       x="-94.816406"
       sodipodi:role="line" /></text>
  <text
     xml:space="preserve"
     style="font-style:normal;font-weight:normal;font-size:40px;line-height:1.25;font-family:sans-serif;letter-spacing:0px;word-spacing:0px;fill:#000000;fill-opacity:1;stroke:none"
     x="-94.816406"
     y="284.91797"
     id="text6374"
     transform="rotate(-90)"><tspan
       sodipodi:role="line"
       id="tspan6370"
       x="-94.816406"
       y="284.91797"
       style="font-style:normal;font-variant:normal;font-weight:normal;font-stretch:normal;font-size:16px;font-family:sans-serif;-inkscape-font-specification:'sans-serif, Normal';font-variant-ligatures:normal;font-variant-caps:normal;font-variant-numeric:normal;font-feature-settings:normal;text-align:start;writing-mode:lr-tb;text-anchor:start">Y2_P</tspan><tspan
       sodipodi:role="line"
       x="-94.816406"
       y="334.91797"
       style="font-style:normal;font-variant:normal;font-weight:normal;font-stretch:normal;font-size:16px;font-family:sans-serif;-inkscape-font-specification:'sans-serif, Normal';font-variant-ligatures:normal;font-variant-caps:normal;font-variant-numeric:normal;font-feature-settings:normal;text-align:start;writing-mode:lr-tb;text-anchor:start"
       id="tspan6372" /></text>
  <text
     transform="rotate(-90)"
     id="text6380"
     y="364.91797"
     x="-94.816406"
     style="font-style:normal;font-weight:normal;font-size:40px;line-height:1.25;font-family:sans-serif;letter-spacing:0px;word-spacing:0px;fill:#000000;fill-opacity:1;stroke:none"
     xml:space="preserve"><tspan
       style="font-style:normal;font-variant:normal;font-weight:normal;font-stretch:normal;font-size:16px;font-family:sans-serif;-inkscape-font-specification:'sans-serif, Normal';font-variant-ligatures:normal;font-variant-caps:normal;font-variant-numeric:normal;font-feature-settings:normal;text-align:start;writing-mode:lr-tb;text-anchor:start"
       y="364.91797"
       x="-94.816406"
       id="tspan6376"
       sodipodi:role="line">Y3_P</tspan><tspan
       id="tspan6378"
       style="font-style:normal;font-variant:normal;font-weight:normal;font-stretch:normal;font-size:16px;font-family:sans-serif;-inkscape-font-specification:'sans-serif, Normal';font-variant-ligatures:normal;font-variant-caps:normal;font-variant-numeric:normal;font-feature-settings:normal;text-align:start;writing-mode:lr-tb;text-anchor:start"
       y="414.91797"
       x="-94.816406"
       sodipodi:role="line" /></text>
  <text
     xml:space="preserve"
     style="font-style:normal;font-weight:normal;font-size:40px;line-height:1.25;font-family:sans-serif;letter-spacing:0px;word-spacing:0px;fill:#000000;fill-opacity:1;stroke:none"
     x="406"
     y="63.5"
     id="text6403"><tspan
       sodipodi:role="line"
       x="406"
       y="63.5"
       style="font-style:normal;font-variant:normal;font-weight:normal;font-stretch:normal;font-size:16px;font-family:sans-serif;-inkscape-font-specification:'sans-serif, Normal';font-variant-ligatures:normal;font-variant-caps:normal;font-variant-numeric:normal;font-feature-settings:normal;text-align:start;writing-mode:lr-tb;text-anchor:start"
       id="tspan6405">8X SENSE</tspan></text>
  <path
     style="fill:none;stroke:#000000;stroke-width:1px;stroke-linecap:butt;stroke-linejoin:miter;stroke-opacity:1;marker-mid:;marker-end:url(#Arrow2Lend)"
     d="M 442,69.000002 421,107"
     id="path6409"
     inkscape:connector-curvature="0" />
</svg>
